<?xml version="1.0" encoding="UTF-8"?>
<svg id="Layer_2" data-name="Layer 2" xmlns="http://www.w3.org/2000/svg" width="28" height="28" viewBox="0 0 28 28">
  <g id="Layer_1-2" data-name="Layer 1">
    <g>
      <circle cx="14" cy="14" r="14"/>
      <path d="m19.83,12.73h0l-5.83-2.18-4.89,1.83v-1.36l.29-.11,4.6-1.72,5.14,1.92v-1.28l-4.54-1.7v-1.24c.52.1,1.21.09,1.91-.32.74-.44,1.86.36,1.87.37l.96.72v-1.2s0-2.65,0-2.65l-.24-.18c-.07-.05-1.76-1.3-3.2-.44-.77.45-1.53.04-1.59,0l-.92-.58v1.09s0,1.27,0,1.27v3.16l-4,1.5h0s-.59.21-.59.21l-.87.31v3.95l1.17-.44,4.89-1.83,5.8,2.17v3.32h0c.03,1.74-.83,3.35-2.58,4.81-.72.6-1.47,1.07-2.09,1.41l-1.13-5.91-1.13,5.91c-.62-.34-1.37-.81-2.09-1.41-1.97-1.65-2.82-3.5-2.52-5.51l5.74-2.15,4.63,1.73v-1.28l-4.63-1.73-6.79,2.54-.07.32c-.54,2.57.46,5,2.89,7.02,1.77,1.47,3.67,2.21,3.75,2.24l.21.08.21-.08c.08-.03,1.98-.76,3.75-2.24,2.01-1.67,3.04-3.62,3.03-5.7h0v-4.21l-1.17-.43Zm-5.23-7.75v-.43c.52.1,1.21.09,1.91-.32.53-.31,1.26,0,1.63.22v1.02c-.33-.13-.72-.23-1.12-.23-.37,0-.75.08-1.12.3-.5.29-1,.22-1.3.12v-.69Z" style="fill: #27adff;"/>
    </g>
  </g>
</svg>